<?xml version="1.0" encoding="utf-8"?>
<!-- Generator: Adobe Illustrator 27.2.0, SVG Export Plug-In . SVG Version: 6.00 Build 0)  -->
<svg version="1.1" id="Layer_1" xmlns="http://www.w3.org/2000/svg" xmlns:xlink="http://www.w3.org/1999/xlink" x="0px" y="0px"
	 viewBox="0 0 555 372" style="enable-background:new 0 0 555 372;" xml:space="preserve">
<style type="text/css">
	.st0{fill:#D2091E;}
	.st1{fill:#2581C4;}
	.st2{fill:#EF7B00;}
	.st3{fill:#86C2EB;}
</style>
<g>
	<path class="st0" d="M73.4,296.3c0,0.5-0.6,0.8-1.7,0.8c-2.6,0.1-4.3,0.5-5.3,1.2c-0.9,0.7-1.8,2.4-2.8,5l-3.1,8.3
		c-7.3,20.1-12.4,35.4-15.3,46.1c-0.2,0.7-0.5,1.1-0.9,1.1c-0.5,0-1.4-2.2-3-6.7c-2.7-8.2-4.7-14.2-6.2-18.3
		c-1.6-4.5-3.9-11.2-7.1-20.2l-4.3-12c-0.6-1.6-1.2-2.8-1.9-3.4s-1.9-0.9-3.5-1c-1.9-0.1-3.2-0.1-3.5-0.2c-0.4-0.1-0.6-0.3-0.6-0.7
		c0-0.6,0.6-0.8,1.8-0.8h0.8c1.1,0,2.9,0,5.6,0.1c2.6,0.1,4.5,0.1,5.7,0.1c0.3,0,1.4,0,3.5-0.1c2-0.1,4.8-0.1,8.5-0.1h1.2
		c1.1,0,1.6,0.3,1.6,0.8c0,0.6-1.1,1-3.2,1l-5.5,0.2c-1.2,0.1-1.8,0.5-1.8,1.2c0,0.1,0.1,0.4,0.2,0.8l0.7,2.4c0.1,0.5,3,8.8,8.7,25
		c1,2.8,2.8,8.2,5.5,15.9C57.1,315,62,300.4,62,299c0-1.3-1.4-2-4.3-1.9h-2.8c-0.7,0-1.1-0.3-1.1-0.8c0-0.7,0.9-1,2.7-1
		c0.4,0,1.3,0,3.1,0c1.6,0.2,2.9,0.3,3.6,0.3h2.9l5.9-0.3C72.9,295.5,73.4,295.8,73.4,296.3z"/>
	<path class="st0" d="M127.4,356.8c0,0.5-0.4,0.8-1.1,0.8h-0.9c-0.4-0.2-4.4-0.3-12.1-0.3c-1.4,0-3,0.1-4.4,0.2
		c-0.8,0.1-1.9,0.1-3.5,0.1c-0.8,0-1.2-0.3-1.2-0.8s0.8-0.8,2.3-0.8c2.4-0.1,3.7-0.4,4.2-0.9c0.4-0.5,0.6-2.2,0.6-5.1v-46.9
		c0-2.9-0.2-4.5-0.5-4.9c-0.4-0.6-2-1-5-1.1c-1.2-0.1-1.7-0.3-1.7-0.7c0-0.5,0.4-0.7,1.1-0.7h12.1c0.9,0,2.6,0,5.2,0.1l3.5-0.1
		c1,0,1.4,0.3,1.4,0.8s-1.3,0.8-3.9,0.9c-1.5,0.1-2.4,0.3-2.8,0.8c-0.3,0.5-0.5,1.7-0.5,3.7v47.5c0,3.4,0.2,5.2,0.5,5.5
		c0.7,0.7,2.6,1.1,5.8,1.2C127,356,127.4,356.3,127.4,356.8z"/>
	<path class="st0" d="M217.4,357c0,0.5-0.5,0.8-1.3,0.8c-0.6,0-1.2,0-1.6-0.1l-11.3-0.4l-11.3,0.4c-0.4,0.1-0.9,0.1-1.3,0.1
		c-1.2,0-1.8-0.3-1.8-1c0-0.7,0.8-1.1,2.4-1.1c5.2-0.1,7.9-0.6,7.9-1.5c0-0.1-0.1-0.3-0.2-0.7l-0.8-2.4l-0.5-1.2
		c-0.6-1.8-1.8-5.9-3.9-12.2h-19c-3.5,9.5-5.4,15-5.4,16.4c0,0.9,0.4,1.3,1.1,1.5c0.2,0.1,1.6,0.2,4.4,0.4c1.7,0.1,2.6,0.4,2.6,0.9
		c0,0.6-0.8,0.9-2.3,0.9c-2.7,0-5.9-0.1-9.5-0.4c-0.9-0.1-1.8-0.1-2.8-0.1s-1.8,0.1-2.8,0.3c-0.5,0.1-0.9,0.2-1.2,0.2
		c-0.9,0-1.2-0.3-1.2-0.8c0-0.6,1-0.9,2.8-0.9c1.8-0.1,3.3-0.4,4-0.9c0.9-0.5,1.4-1.4,1.9-2.9c7.6-21.9,13.8-39.4,18.6-52.8
		c0.1-0.7,0.4-1.4,0.9-2.4l0.4-1.6c0.2-0.7,0.4-1,0.7-1c0.2,0,0.3,0.2,0.5,0.6c0.8,2.3,2.5,7.1,5.3,14.5c2.1,5.8,7.5,20.1,15.9,43.3
		c0.5,1.3,1.1,2.2,1.8,2.6c0.8,0.4,2.3,0.6,4.6,0.7C216.7,356.1,217.4,356.4,217.4,357z M193.4,335.7c-1-2.7-2.6-7.1-4.8-13.2
		l-4.3-12.3c-2.5,6.5-5.5,15.1-9,25.6L193.4,335.7L193.4,335.7z"/>
	<path class="st1" d="M304.7,338.9c0,0.5-0.3,0.7-0.8,0.7h-2c-2.7-0.1-4.2,0.4-4.6,1.4c-0.2,0.7-0.4,3.3-0.4,7.7v2.9
		c-3.1,2.6-5.9,4.4-8.7,5.5c-2.8,1.1-6.1,1.6-10.1,1.6c-9.4,0-16.8-2.8-22.4-8.4c-5.5-5.6-8.3-13.2-8.3-22.8
		c0-9.7,2.7-17.6,8.1-23.6c5.4-5.9,12.5-9,21.4-9c3.8,0,8.1,1.1,12.7,3.2c1.3,0.7,2.5,1,3.4,1c1.2,0,1.8-0.7,2.2-2.1
		c0.3-0.9,0.7-1.2,1.1-1.2c0.5,0,0.7,0.2,0.7,0.7c0,0.2-0.1,0.8-0.2,1.8c-0.3,3.4-0.5,5.9-0.5,7.3v5.8c0.1,2.1,0.1,3,0.1,2.8
		c-0.1,1.4-0.5,2.1-1.2,2.1c-0.6,0-0.9-0.4-0.9-1.2c-0.3-5.8-1.9-10.4-5-13.6c-3.1-3.3-7-5-11.9-5c-6.1,0-11,2.8-14.6,8.3
		c-3.5,5.6-5.4,13-5.4,22.5c0,9.1,1.8,16.4,5.5,21.8c3.6,5.4,8.5,8.1,14.8,8.1c4.7,0,8-1.3,9.8-4c0.9-1.3,1.3-3.8,1.3-7.4
		c0-3-0.3-4.7-0.9-5.2c-0.6-0.6-2.5-0.8-5.9-0.7c-0.9,0-1.3,0-1.6-0.1c-0.2-0.1-0.4-0.3-0.4-0.6c0-0.7,0.7-1,1.9-1h1.6
		c0.9,0.1,4,0.1,9.4,0h7.5c0.4,0,0.9,0,1.3,0c0.5,0,0.8,0,1,0C304.2,338.1,304.7,338.3,304.7,338.9z"/>
	<path class="st1" d="M394.2,338.9c0,0.5-0.3,0.7-0.8,0.7h-2c-2.7-0.1-4.2,0.4-4.6,1.4c-0.2,0.7-0.4,3.3-0.4,7.7v2.9
		c-3.1,2.6-5.9,4.4-8.7,5.5c-2.8,1.1-6.1,1.6-10.1,1.6c-9.4,0-16.8-2.8-22.4-8.4c-5.5-5.6-8.3-13.2-8.3-22.8
		c0-9.7,2.7-17.6,8.1-23.6c5.4-5.9,12.5-9,21.4-9c3.8,0,8.1,1.1,12.7,3.2c1.3,0.7,2.5,1,3.4,1c1.2,0,1.8-0.7,2.2-2.1
		c0.3-0.9,0.7-1.2,1.1-1.2c0.5,0,0.7,0.2,0.7,0.7c0,0.2-0.1,0.8-0.2,1.8c-0.3,3.4-0.5,5.9-0.5,7.3v5.8c0.1,2.1,0.1,3,0.1,2.8
		c-0.1,1.4-0.5,2.1-1.2,2.1c-0.6,0-0.9-0.4-0.9-1.2c-0.3-5.8-1.9-10.4-5-13.6s-7-5-11.9-5c-6.1,0-11,2.8-14.6,8.3
		c-3.5,5.6-5.4,13-5.4,22.5c0,9.1,1.8,16.4,5.5,21.8c3.6,5.4,8.5,8.1,14.8,8.1c4.7,0,8-1.3,9.8-4c0.9-1.3,1.3-3.8,1.3-7.4
		c0-3-0.3-4.7-0.9-5.2c-0.6-0.6-2.5-0.8-5.9-0.7c-0.9,0-1.3,0-1.6-0.1c-0.2-0.1-0.4-0.3-0.4-0.6c0-0.7,0.7-1,1.9-1h1.6
		c0.9,0.1,4,0.1,9.4,0h7.5c0.4,0,0.9,0,1.3,0s0.8,0,1,0C393.6,338.1,394.2,338.3,394.2,338.9z"/>
	<path class="st2" d="M540.9,327.1c0,8.8-2.7,16.3-8,22.4c-5.3,6.1-11.8,9.1-19.5,9.1c-8.2,0-15.1-3.1-20.6-9.3
		c-5.6-6.2-8.3-13.8-8.3-22.9c0-9.2,2.7-16.8,8.1-22.7c5.4-5.9,12.2-8.8,20.6-8.8c7.9,0,14.5,3.1,19.9,9.2
		C538.3,310.3,540.9,317.9,540.9,327.1z M531,327.5c0-10.8-2.2-19.4-6.7-25.4c-2.8-3.8-6.7-5.8-11.6-5.8c-4.7,0-8.4,1.4-11,4.4
		c-4.8,5.4-7.2,14.1-7.2,26.1c0,9.6,1.6,17,5,22.3c3.4,5.3,8.1,8,14.1,8c5.7,0,9.9-2.5,12.8-7.5C529.3,344,531,336.7,531,327.5z"/>
	<g>
		<path class="st2" d="M448.1,356.8c0,0.5-0.4,0.8-1.1,0.8h-0.9c-0.4-0.2-4.4-0.3-12.1-0.3c-1.4,0-3,0.1-4.4,0.2
			c-0.8,0.1-1.9,0.1-3.5,0.1c-0.8,0-1.2-0.3-1.2-0.8s0.8-0.8,2.3-0.8c2.4-0.1,3.7-0.4,4.2-0.9c0.4-0.5,0.6-2.2,0.6-5.1v-46.9
			c0-2.9-0.2-4.5-0.5-4.9c-0.4-0.6-2-1-5-1.1c-1.2-0.1-1.7-0.3-1.7-0.7c0-0.5,0.4-0.7,1.1-0.7H438c0.9,0,2.6,0,5.2,0.1l3.4-0.1
			c1,0,1.4,0.3,1.4,0.8s-1.3,0.8-3.9,0.9c-1.5,0.1-2.4,0.3-2.8,0.8c-0.3,0.5-0.5,1.7-0.5,3.7v47.5c0,3.4,0.2,5.2,0.5,5.5
			c0.7,0.7,2.6,1.1,5.8,1.2C447.7,356,448.1,356.3,448.1,356.8z"/>
		<g>
			<path class="st3" d="M446.5,155c-66.7,40.2-72.6,36-125.9,55.8c-2-1.5-1.7-0.5-3.7-1.9c97-32.4,132.5-79.5,129.1-127.7
				c-69.4,80.3-100.1,91.7-143.7,117c-1.1-1-0.6-0.5-1.6-1.5c95-58.3,134.7-127.1,119.4-183.2C350.3,116.3,326.4,141,281.5,190
				c10-18.5,19.6-37.3,32.1-54.2c-20-0.8-35.4,13.7-37.8,32.8c-1.2,9.2-3,18.3-5.5,27.1c1.8-11.5,2.3-23.1,1.3-34.7
				c-4.1-15-15.4-27.4-29.9-33c13.2,25.7,19.3,54.6,18.2,83.4l-1,0.8c1.2-17.2-1-33.6-7-52.2c-8.5-15.9-24.2-26.9-42-29.5
				c20.3,24.2,33.8,49.3,40.1,77.9c-44.5-31.1-99.4-70.6-132.9-132.7c-0.2,68.7,61.5,120.6,134.4,140.9c0.1,0.2,0.1,0.5,0.1,0.6
				c-0.7,0.5-1.4,0.9-2.1,1.4c-44.8-17.9-96.5-41-141-88.5c6.6,58.5,68.1,89.4,132.9,94.1c-1.1,0.8-2.2,1.7-3.2,2.6
				c-36.7-6.2-79.5-13.8-121.1-42.6c14,45.7,66.7,55,116.5,46.9c-0.8,0.9-1.6,1.8-2.4,2.7c-32.8,6.4-76.2,8.6-106.2-9.8
				c9.8,35.3,60.6,32.6,101.9,17.6c-1.1,3.6-1,7.4,0.5,11.7c-10.6,8-10.4,21-6.9,25.2c8-15.1,39.6-37.6,65.9-45.3
				c0,0,2.4-2.8,17,5.6c53.2,18.3,102,6.1,116.7-36c-43.4,24.4-52.4,26-84.3,23.7c-1-1.6-1.6-1.7-1.7-1.7
				C380.6,213.1,439.9,199.7,446.5,155z M396.1,158.2c23.7-20.7,47-63.2,47-63.2c-7.4,39.2-40.6,81.6-124.6,110.1
				C318.5,205.2,372.4,178.9,396.1,158.2z M417.6,27.6c2.1,50.9-26.9,108-110.6,159.4C412.5,108.6,417.6,27.6,417.6,27.6z
				 M133.7,108.5c20.9,38.8,78.5,79.4,104.2,97.6C179.4,174.9,160.2,162.3,133.7,108.5z M122.9,150.2c32,34.3,74,51.2,104.9,63.4
				C182.1,205.4,137.5,177.8,122.9,150.2z M134,231.3c33.8,13,64.6,9.8,90.3,8C187.9,248.7,154,244.6,134,231.3z M280.6,164.2
				c2.1-13.1,16-25,27.2-24.6c-6.5,2.7-17.9,10.3-21.4,16.8c-6.5,11.8-5.4,25.8-13.5,36.5C278.6,182,278.5,177.4,280.6,164.2z
				 M249.6,136.9c19.1,10.9,16.8,44.2,13.6,64.7C263.1,176.3,260.2,158,249.6,136.9z M251.1,206c-5.8-26.4-12.8-44.9-28.6-64.5
				C244.9,148.6,250,184,251.1,206z M130.6,196.6c31.1,21.6,63.1,25.9,89.7,30.4C181,227.7,147.6,215.1,130.6,196.6z M233.8,247.2
				c-1,0-1.8-0.8-1.8-1.8c0-1,0.8-1.8,1.8-1.8c1,0,1.8,0.8,1.8,1.8C235.6,246.4,234.8,247.2,233.8,247.2z M413.7,211
				c-18.7,31.7-61,40.4-102.8,26C382.9,251.6,413.7,211,413.7,211z M336.2,219.8c66.9-17.2,105.7-54.5,105.7-54.5
				C421.4,198.1,378.6,209.3,336.2,219.8z"/>
			<path class="st3" d="M255.8,172.1c-0.1-0.1-0.1-0.3-0.1-0.5C255.7,171.8,255.8,172,255.8,172.1z"/>
			<path class="st3" d="M253.3,164.2c-0.1-0.5-0.3-0.9-0.5-1.3C253,163.3,253.2,163.8,253.3,164.2z"/>
			<path class="st3" d="M251.9,159.8c0,0.1,0,0.1,0.1,0.1C251.9,159.9,251.9,159.8,251.9,159.8z"/>
			<path class="st3" d="M254.6,168.2c0.1,0.3,0.2,0.6,0.3,1C254.8,168.8,254.7,168.5,254.6,168.2z"/>
			<path class="st3" d="M254,166.3c-0.1-0.5-0.3-0.9-0.5-1.4C253.7,165.4,253.8,165.9,254,166.3z"/>
			<path class="st3" d="M254.6,168.2c-0.1-0.5-0.3-1-0.5-1.5C254.3,167.2,254.4,167.7,254.6,168.2z"/>
			<path class="st3" d="M272.3,169.2c0.1,0.5,0.1,1,0.1,1.4C272.3,170.2,272.3,169.7,272.3,169.2z"/>
			<path class="st3" d="M271.8,163.1c0.1,0.6,0.1,1.1,0.1,1.6C271.8,164,271.8,163.5,271.8,163.1z"/>
			<path class="st3" d="M272.4,170.7c0,0.3,0.1,0.5,0.1,0.8C272.5,171.2,272.4,170.9,272.4,170.7z"/>
			<path class="st3" d="M272.5,171.4c0,0.3,0.1,0.5,0.1,0.6C272.5,171.8,272.5,171.6,272.5,171.4z"/>
			<path class="st3" d="M271.6,161.1c0,0,0,0.1,0,0.2C271.6,161.2,271.6,161.1,271.6,161.1z"/>
			<path class="st3" d="M271.6,161.3c0,0.3,0.1,1,0.1,1.8C271.7,162.5,271.6,161.9,271.6,161.3z"/>
			<path class="st3" d="M272,166.6c0.1,0.5,0.1,1,0.1,1.6C272.1,167.7,272.1,167.1,272,166.6z"/>
			<path class="st3" d="M272.5,172c0,0.1,0,0.3,0.1,0.4C272.5,172.3,272.5,172.1,272.5,172z"/>
		</g>
	</g>
</g>
</svg>
